<?xml version="1.0" encoding="UTF-8"?>
<svg width="18px" height="18px" viewBox="0 0 18 18" version="1.1" xmlns="http://www.w3.org/2000/svg" xmlns:xlink="http://www.w3.org/1999/xlink">
    <title>e/ic_exclamation_triangle_b</title>
    <g id="1.1.home_adex_desktop" stroke="none" stroke-width="1" fill="none" fill-rule="evenodd">
        <g id="ADEX_V1_1.2.0.home_desktop" transform="translate(-472.000000, -117.000000)" fill="#FFFFFF">
            <g id="Group-8" transform="translate(176.000000, 94.000000)">
                <g id="e/ic_exclamation_triangle_b" transform="translate(296.000000, 23.000000)">
                    <path d="M10.3198678,0.312301508 C10.8911678,0.597951541 11.3544089,1.06119255 11.6400589,1.63249262 L17.6876985,13.7277718 C18.4168199,15.1860147 17.8257502,16.9592237 16.3675074,17.6883452 C15.957601,17.8932983 15.5056055,18 15.0473163,18 L2.95203707,18 C1.32167201,18 0,16.678328 0,15.0479629 C0,14.5896737 0.106701651,14.1376782 0.311654845,13.7277718 L6.35929445,1.63249262 C7.08841586,0.174249785 8.86162494,-0.416819909 10.3198678,0.312301508 Z M9,12 C8.44771525,12 8,12.4477153 8,13 C8,13.5522847 8.44771525,14 9,14 C9.55228475,14 10,13.5522847 10,13 C10,12.4477153 9.55228475,12 9,12 Z M9,6 C8.44771525,6 8,6.44771525 8,7 L8,7 L8,10 C8,10.5522847 8.44771525,11 9,11 C9.55228475,11 10,10.5522847 10,10 L10,10 L10,7 C10,6.44771525 9.55228475,6 9,6 Z" id="color🎨"></path>
                </g>
            </g>
        </g>
    </g>
</svg>